<svg xmlns="http://www.w3.org/2000/svg" version="1.1" xmlns:xlink="http://www.w3.org/1999/xlink" xmlns:svgjs="http://svgjs.dev/svgjs" width="2000" height="2024" viewBox="0 0 2000 2024"><g transform="matrix(1,0,0,1,1.7678688524587187,0.8194331983804659)"><svg viewBox="0 0 244 247" data-background-color="#ffffff" preserveAspectRatio="xMidYMid meet" height="2024" width="2000" xmlns="http://www.w3.org/2000/svg" xmlns:xlink="http://www.w3.org/1999/xlink"><g id="tight-bounds" transform="matrix(1,0,0,1,-0.21567999999996346,-0.09999999999999432)"><svg viewBox="0 0 244.43135999999996 247.2" height="247.2" width="244.43135999999996"><g><svg></svg></g><g><svg viewBox="0 0 244.43135999999996 247.2" height="247.2" width="244.43135999999996"><g transform="matrix(1,0,0,1,0,79.56640941176471)"><svg viewBox="0 0 244.43135999999996 88.06718117647058" height="88.06718117647058" width="244.43135999999996"><g><svg viewBox="0 0 244.43135999999996 88.06718117647058" height="88.06718117647058" width="244.43135999999996"><g><svg viewBox="0 0 244.43135999999996 88.06718117647058" height="88.06718117647058" width="244.43135999999996"><g><svg viewBox="0 0 244.43135999999996 88.06718117647058" height="88.06718117647058" width="244.43135999999996"><g id="textblocktransform"><svg viewBox="0 0 244.43135999999996 88.06718117647058" height="88.06718117647058" width="244.43135999999996" id="textblock"><g><svg viewBox="0 0 244.43135999999996 88.06718117647058" height="88.06718117647058" width="244.43135999999996"><g transform="matrix(1,0,0,1,0,0)"><svg width="244.43135999999996" viewBox="7.08 -34.69 96.28 34.69" height="88.06718117647058" data-palette-color="#ff0000"><path d="M7.08 0L7.08-34.69 11.23-34.69 11.23-3.64 26.81-3.64 26.81 0 7.08 0ZM35.47 0L35.47-34.69 39.62-34.69 39.62 0 35.47 0ZM72.65-31.03L56.71-31.03 56.71-19.7 71.19-19.7 71.19-16.04 56.71-16.04 56.71 0 52.56 0 52.56-34.69 72.65-34.69 72.65-31.03ZM103.36 0L83.02 0 83.02-34.69 103.36-34.69 103.36-31.03 87.18-31.03 87.18-19.7 102.02-19.7 102.02-16.04 87.18-16.04 87.18-3.66 103.36-3.66 103.36 0Z" opacity="1" transform="matrix(1,0,0,1,0,0)" fill="#ff0000" class="wordmark-text-0" data-fill-palette-color="primary" id="text-0"></path></svg></g></svg></g></svg></g></svg></g><g></g></svg></g></svg></g></svg></g><path d="M0 73.566L0 1 244.431 1 244.431 73.566 236.489 73.566 236.489 8.942 7.942 8.942 7.942 73.566 0 73.566M0 173.634L0 246.2 244.431 246.2 244.431 173.634 236.489 173.634 236.489 238.258 7.942 238.258 7.942 173.634 0 173.634" fill="#ff0000" stroke="transparent" data-fill-palette-color="primary"></path></svg></g><defs></defs></svg><rect width="244.43135999999996" height="247.2" fill="none" stroke="none" visibility="hidden"></rect></g></svg></g></svg>